<svg width="17" height="17" viewBox="0 0 17 17" fill="none" xmlns="http://www.w3.org/2000/svg">
<path fill-rule="evenodd" clip-rule="evenodd" d="M16.2559 4.24404C16.5813 4.56947 16.5813 5.09711 16.2559 5.42255L5.42255 16.2559C5.26627 16.4122 5.05431 16.5 4.8333 16.5L1.49996 16.5C1.27895 16.5 1.06698 16.4122 0.910703 16.2559C0.754423 16.0996 0.666625 15.8876 0.666626 15.6666L0.666629 12.3333C0.666629 12.1123 0.754426 11.9003 0.910706 11.744L11.744 0.910704C12.0695 0.585267 12.5971 0.585267 12.9226 0.910704C13.248 1.23614 13.248 1.76378 12.9226 2.08921L2.33329 12.6785L2.33329 14.8333L4.48812 14.8333L15.0774 4.24404C15.4028 3.9186 15.9304 3.9186 16.2559 4.24404Z" fill="black"/>
<path fill-rule="evenodd" clip-rule="evenodd" d="M11.744 0.910704C12.0695 0.585267 12.5971 0.585267 12.9226 0.910704L16.2559 4.24404C16.5813 4.56947 16.5813 5.09711 16.2559 5.42255C15.9304 5.74799 15.4028 5.74799 15.0774 5.42255L11.744 2.08922C11.4186 1.76378 11.4186 1.23614 11.744 0.910704Z" fill="black"/>
<path fill-rule="evenodd" clip-rule="evenodd" d="M12.5774 7.92255L9.24404 4.58922L10.4226 3.4107L13.7559 6.74404L12.5774 7.92255Z" fill="black"/>
</svg>
